<svg width="164" height="67" viewBox="0 0 164 67" fill="none" xmlns="http://www.w3.org/2000/svg">
<path d="M0.203125 16.8594C0.203125 15.3906 0.479167 14.0677 1.03125 12.8906C1.58333 11.7031 2.34375 10.6927 3.3125 9.85938C4.29167 9.01562 5.44792 8.36979 6.78125 7.92188C8.125 7.46354 9.57812 7.23438 11.1406 7.23438C11.8073 7.23438 12.4635 7.27604 13.1094 7.35938C13.7656 7.44271 14.3906 7.55729 14.9844 7.70312C15.5885 7.84896 16.151 8.02604 16.6719 8.23438C17.2031 8.43229 17.6719 8.65104 18.0781 8.89062V0.078125H22.7031V26H18.0781V24.2656C17.6719 24.5469 17.1927 24.8125 16.6406 25.0625C16.0885 25.3125 15.4948 25.5312 14.8594 25.7188C14.224 25.9062 13.5625 26.0521 12.875 26.1562C12.1979 26.2708 11.526 26.3281 10.8594 26.3281C9.29688 26.3281 7.85938 26.099 6.54688 25.6406C5.24479 25.1823 4.125 24.5365 3.1875 23.7031C2.25 22.8698 1.51562 21.875 0.984375 20.7188C0.463542 19.5521 0.203125 18.2656 0.203125 16.8594ZM5.0625 16.8594C5.0625 17.599 5.20833 18.2969 5.5 18.9531C5.80208 19.6094 6.22917 20.1875 6.78125 20.6875C7.34375 21.1771 8.01562 21.5677 8.79688 21.8594C9.58854 22.1406 10.474 22.2812 11.4531 22.2812C12.0781 22.2812 12.7031 22.224 13.3281 22.1094C13.9531 21.9844 14.5521 21.8125 15.125 21.5938C15.7083 21.375 16.25 21.1094 16.75 20.7969C17.2604 20.4844 17.7031 20.1354 18.0781 19.75V13.3594C17.6094 12.9844 17.1146 12.6667 16.5938 12.4062C16.0729 12.1458 15.5417 11.9323 15 11.7656C14.4583 11.599 13.9115 11.4792 13.3594 11.4062C12.8073 11.3229 12.2708 11.2812 11.75 11.2812C10.6875 11.2812 9.73958 11.4271 8.90625 11.7188C8.08333 12 7.38542 12.3906 6.8125 12.8906C6.25 13.3906 5.81771 13.9792 5.51562 14.6562C5.21354 15.3333 5.0625 16.0677 5.0625 16.8594ZM27.2656 16.7812C27.2656 15.4583 27.5312 14.2188 28.0625 13.0625C28.6042 11.9062 29.3698 10.8958 30.3594 10.0312C31.3594 9.16667 32.5625 8.48438 33.9688 7.98438C35.3854 7.48438 36.974 7.23438 38.7344 7.23438C40.4948 7.23438 42.0781 7.48438 43.4844 7.98438C44.901 8.48438 46.1042 9.16667 47.0938 10.0312C48.0938 10.8958 48.8594 11.9062 49.3906 13.0625C49.9323 14.2188 50.2031 15.4583 50.2031 16.7812C50.2031 18.1042 49.9323 19.3438 49.3906 20.5C48.8594 21.6562 48.0938 22.6667 47.0938 23.5312C46.1042 24.3958 44.901 25.0781 43.4844 25.5781C42.0781 26.0781 40.4948 26.3281 38.7344 26.3281C36.974 26.3281 35.3854 26.0781 33.9688 25.5781C32.5625 25.0781 31.3594 24.3958 30.3594 23.5312C29.3698 22.6667 28.6042 21.6562 28.0625 20.5C27.5312 19.3438 27.2656 18.1042 27.2656 16.7812ZM32.125 16.7812C32.125 17.5208 32.2708 18.224 32.5625 18.8906C32.8646 19.5469 33.2969 20.1302 33.8594 20.6406C34.4323 21.1406 35.125 21.5417 35.9375 21.8438C36.7604 22.1354 37.6927 22.2812 38.7344 22.2812C39.776 22.2812 40.7031 22.1354 41.5156 21.8438C42.3385 21.5417 43.0312 21.1406 43.5938 20.6406C44.1667 20.1302 44.599 19.5469 44.8906 18.8906C45.1927 18.224 45.3438 17.5208 45.3438 16.7812C45.3438 16.0417 45.1927 15.3385 44.8906 14.6719C44.599 14.0052 44.1667 13.4219 43.5938 12.9219C43.0312 12.4115 42.3385 12.0104 41.5156 11.7188C40.7031 11.4167 39.776 11.2656 38.7344 11.2656C37.6927 11.2656 36.7604 11.4167 35.9375 11.7188C35.125 12.0104 34.4323 12.4115 33.8594 12.9219C33.2969 13.4219 32.8646 14.0052 32.5625 14.6719C32.2708 15.3385 32.125 16.0417 32.125 16.7812ZM57.6562 11.0312H53.2031V7.5625H57.6562V1.82812H62.2812V7.5625H66.7344V11.0312H62.2812V26H57.6562V11.0312ZM69.9375 13.6406C69.9375 11.901 70.2656 10.2812 70.9219 8.78125C71.5781 7.27083 72.526 5.96354 73.7656 4.85938C75.0156 3.74479 76.5365 2.86979 78.3281 2.23438C80.1302 1.59896 82.1667 1.28125 84.4375 1.28125C86.4271 1.28125 88.25 1.48438 89.9062 1.89062C91.5729 2.28646 93.1198 2.89583 94.5469 3.71875L92.2656 7.46875C91.8385 7.1875 91.3438 6.9375 90.7812 6.71875C90.2292 6.5 89.6354 6.31771 89 6.17188C88.375 6.01562 87.724 5.89583 87.0469 5.8125C86.3802 5.72917 85.7188 5.6875 85.0625 5.6875C83.4792 5.6875 82.0677 5.88542 80.8281 6.28125C79.5885 6.66667 78.5417 7.21354 77.6875 7.92188C76.8438 8.61979 76.1979 9.45833 75.75 10.4375C75.3125 11.4062 75.0938 12.474 75.0938 13.6406C75.0938 14.849 75.3229 15.9583 75.7812 16.9688C76.2396 17.9792 76.901 18.8542 77.7656 19.5938C78.6406 20.3229 79.7031 20.8958 80.9531 21.3125C82.2135 21.7188 83.6354 21.9219 85.2188 21.9219C85.9375 21.9219 86.651 21.8698 87.3594 21.7656C88.0677 21.6615 88.75 21.5208 89.4062 21.3438C90.0729 21.1562 90.7135 20.9375 91.3281 20.6875C91.9427 20.4271 92.5156 20.1458 93.0469 19.8438L95.3281 23.5938C93.9948 24.4479 92.4531 25.1198 90.7031 25.6094C88.9531 26.0885 87.0938 26.3281 85.125 26.3281C82.6146 26.3281 80.4115 26.0052 78.5156 25.3594C76.6198 24.7031 75.0365 23.8073 73.7656 22.6719C72.4948 21.526 71.5365 20.1823 70.8906 18.6406C70.2552 17.0885 69.9375 15.4219 69.9375 13.6406ZM99.1094 16.7812C99.1094 15.4583 99.375 14.2188 99.9062 13.0625C100.448 11.9062 101.214 10.8958 102.203 10.0312C103.203 9.16667 104.406 8.48438 105.812 7.98438C107.229 7.48438 108.818 7.23438 110.578 7.23438C112.339 7.23438 113.922 7.48438 115.328 7.98438C116.745 8.48438 117.948 9.16667 118.938 10.0312C119.938 10.8958 120.703 11.9062 121.234 13.0625C121.776 14.2188 122.047 15.4583 122.047 16.7812C122.047 18.1042 121.776 19.3438 121.234 20.5C120.703 21.6562 119.938 22.6667 118.938 23.5312C117.948 24.3958 116.745 25.0781 115.328 25.5781C113.922 26.0781 112.339 26.3281 110.578 26.3281C108.818 26.3281 107.229 26.0781 105.812 25.5781C104.406 25.0781 103.203 24.3958 102.203 23.5312C101.214 22.6667 100.448 21.6562 99.9062 20.5C99.375 19.3438 99.1094 18.1042 99.1094 16.7812ZM103.969 16.7812C103.969 17.5208 104.115 18.224 104.406 18.8906C104.708 19.5469 105.141 20.1302 105.703 20.6406C106.276 21.1406 106.969 21.5417 107.781 21.8438C108.604 22.1354 109.536 22.2812 110.578 22.2812C111.62 22.2812 112.547 22.1354 113.359 21.8438C114.182 21.5417 114.875 21.1406 115.438 20.6406C116.01 20.1302 116.443 19.5469 116.734 18.8906C117.036 18.224 117.188 17.5208 117.188 16.7812C117.188 16.0417 117.036 15.3385 116.734 14.6719C116.443 14.0052 116.01 13.4219 115.438 12.9219C114.875 12.4115 114.182 12.0104 113.359 11.7188C112.547 11.4167 111.62 11.2656 110.578 11.2656C109.536 11.2656 108.604 11.4167 107.781 11.7188C106.969 12.0104 106.276 12.4115 105.703 12.9219C105.141 13.4219 104.708 14.0052 104.406 14.6719C104.115 15.3385 103.969 16.0417 103.969 16.7812ZM126.844 7.5625H131.469V9.125C132.625 8.41667 133.75 7.92708 134.844 7.65625C135.948 7.375 137.026 7.23438 138.078 7.23438C139.547 7.23438 140.896 7.46875 142.125 7.9375C143.354 8.40625 144.406 9.11458 145.281 10.0625C145.958 9.54167 146.625 9.10417 147.281 8.75C147.938 8.38542 148.594 8.09375 149.25 7.875C149.906 7.64583 150.573 7.48438 151.25 7.39062C151.927 7.28646 152.625 7.23438 153.344 7.23438C154.854 7.23438 156.224 7.44271 157.453 7.85938C158.682 8.26562 159.729 8.875 160.594 9.6875C161.469 10.5 162.141 11.5156 162.609 12.7344C163.089 13.9427 163.328 15.3438 163.328 16.9375V26H158.719V17.6875C158.719 16.6771 158.573 15.776 158.281 14.9844C158 14.1823 157.599 13.5104 157.078 12.9688C156.568 12.4167 155.953 12 155.234 11.7188C154.526 11.4271 153.745 11.2812 152.891 11.2812C152.422 11.2812 151.943 11.3281 151.453 11.4219C150.964 11.5052 150.484 11.6406 150.016 11.8281C149.557 12.0156 149.125 12.2552 148.719 12.5469C148.312 12.8281 147.958 13.1615 147.656 13.5469V26H143.047V17.6875C143.047 16.6771 142.901 15.776 142.609 14.9844C142.328 14.1823 141.927 13.5104 141.406 12.9688C140.896 12.4167 140.276 12 139.547 11.7188C138.828 11.4271 138.036 11.2812 137.172 11.2812C136.641 11.2812 136.104 11.3385 135.562 11.4531C135.031 11.5573 134.516 11.7083 134.016 11.9062C133.526 12.1042 133.062 12.3438 132.625 12.625C132.198 12.9062 131.812 13.224 131.469 13.5781V26H126.844V7.5625ZM21.6875 53.5625C21.6875 51.8438 22.0104 50.2396 22.6562 48.75C23.3021 47.25 24.2448 45.9479 25.4844 44.8438C26.724 43.7396 28.2448 42.8698 30.0469 42.2344C31.8594 41.599 33.9323 41.2812 36.2656 41.2812C37.1094 41.2812 37.9531 41.3281 38.7969 41.4219C39.651 41.5052 40.4896 41.6406 41.3125 41.8281C42.1458 42.0156 42.9531 42.2552 43.7344 42.5469C44.526 42.8281 45.276 43.1667 45.9844 43.5625L43.7031 47.3125C43.276 47.0625 42.7917 46.8385 42.25 46.6406C41.7083 46.4323 41.125 46.2604 40.5 46.125C39.8854 45.9792 39.2448 45.8698 38.5781 45.7969C37.9219 45.724 37.2604 45.6875 36.5938 45.6875C35.0521 45.6875 33.6771 45.8854 32.4688 46.2812C31.2604 46.6667 30.2396 47.2135 29.4062 47.9219C28.5729 48.6198 27.9375 49.4583 27.5 50.4375C27.0625 51.4167 26.8438 52.4896 26.8438 53.6562C26.8438 54.8646 27.0729 55.974 27.5312 56.9844C27.9896 57.9948 28.6406 58.8646 29.4844 59.5938C30.3281 60.3229 31.349 60.8958 32.5469 61.3125C33.7448 61.7188 35.0833 61.9219 36.5625 61.9219C37.7396 61.9219 38.8177 61.7917 39.7969 61.5312C40.776 61.2604 41.6302 60.8802 42.3594 60.3906C43.0885 59.901 43.6823 59.3125 44.1406 58.625C44.599 57.9271 44.901 57.1458 45.0469 56.2812H36.5156V52.2031H49.5V52.2188L49.5156 52.2031C49.776 53.4531 49.8542 54.6719 49.75 55.8594C49.6562 57.0365 49.3854 58.151 48.9375 59.2031C48.5 60.2448 47.8958 61.2031 47.125 62.0781C46.3542 62.9531 45.4323 63.7083 44.3594 64.3438C43.2865 64.9688 42.0677 65.4583 40.7031 65.8125C39.3385 66.1562 37.8438 66.3281 36.2188 66.3281C33.9479 66.3281 31.9115 65.9948 30.1094 65.3281C28.3177 64.6615 26.7969 63.75 25.5469 62.5938C24.2969 61.4375 23.3385 60.0833 22.6719 58.5312C22.0156 56.9792 21.6875 55.3229 21.6875 53.5625ZM53.9062 56.7188C53.9062 55.4688 54.1615 54.276 54.6719 53.1406C55.1823 51.9948 55.9167 50.9844 56.875 50.1094C57.8333 49.2344 59.0052 48.5365 60.3906 48.0156C61.7865 47.4948 63.3698 47.2344 65.1406 47.2344C66.901 47.2344 68.4844 47.5 69.8906 48.0312C71.3073 48.5521 72.5052 49.2708 73.4844 50.1875C74.474 51.1042 75.2292 52.1823 75.75 53.4219C76.2812 54.6615 76.5469 55.9896 76.5469 57.4062C76.5469 57.5833 76.5417 57.776 76.5312 57.9844C76.5312 58.1823 76.5208 58.3646 76.5 58.5312H59.0625C59.2604 59.0833 59.5781 59.5885 60.0156 60.0469C60.4635 60.5052 61.0208 60.901 61.6875 61.2344C62.3542 61.5677 63.125 61.8281 64 62.0156C64.875 62.1927 65.8438 62.2812 66.9062 62.2812C67.9688 62.2812 69.026 62.1719 70.0781 61.9531C71.1302 61.724 72.1354 61.4375 73.0938 61.0938L74.6562 64.625C74.0521 64.9062 73.4375 65.1562 72.8125 65.375C72.1979 65.5833 71.5521 65.7604 70.875 65.9062C70.2083 66.0417 69.5052 66.1458 68.7656 66.2188C68.0365 66.2917 67.2656 66.3281 66.4531 66.3281C64.3802 66.3281 62.5625 66.0781 61 65.5781C59.4375 65.0781 58.1302 64.3958 57.0781 63.5312C56.026 62.6667 55.2344 61.651 54.7031 60.4844C54.1719 59.3177 53.9062 58.0625 53.9062 56.7188ZM71.6406 54.9219C71.474 54.4115 71.2135 53.9375 70.8594 53.5C70.5156 53.0521 70.0833 52.6667 69.5625 52.3438C69.0417 52.0104 68.4375 51.75 67.75 51.5625C67.0625 51.375 66.3073 51.2812 65.4844 51.2812C64.6094 51.2812 63.8125 51.3802 63.0938 51.5781C62.375 51.776 61.7448 52.0417 61.2031 52.375C60.6615 52.7083 60.2083 53.0938 59.8438 53.5312C59.4896 53.9688 59.2292 54.4323 59.0625 54.9219H71.6406ZM81.6562 47.5625H86.2812V49.125C87.4375 48.4167 88.5625 47.9271 89.6562 47.6562C90.7604 47.375 91.8385 47.2344 92.8906 47.2344C94.3594 47.2344 95.7083 47.4688 96.9375 47.9375C98.1667 48.4062 99.2188 49.1146 100.094 50.0625C100.771 49.5417 101.438 49.1042 102.094 48.75C102.75 48.3854 103.406 48.0938 104.062 47.875C104.719 47.6458 105.385 47.4844 106.062 47.3906C106.74 47.2865 107.438 47.2344 108.156 47.2344C109.667 47.2344 111.036 47.4427 112.266 47.8594C113.495 48.2656 114.542 48.875 115.406 49.6875C116.281 50.5 116.953 51.5156 117.422 52.7344C117.901 53.9427 118.141 55.3438 118.141 56.9375V66H113.531V57.6875C113.531 56.6771 113.385 55.776 113.094 54.9844C112.812 54.1823 112.411 53.5104 111.891 52.9688C111.38 52.4167 110.766 52 110.047 51.7188C109.339 51.4271 108.557 51.2812 107.703 51.2812C107.234 51.2812 106.755 51.3281 106.266 51.4219C105.776 51.5052 105.297 51.6406 104.828 51.8281C104.37 52.0156 103.938 52.2552 103.531 52.5469C103.125 52.8281 102.771 53.1615 102.469 53.5469V66H97.8594V57.6875C97.8594 56.6771 97.7135 55.776 97.4219 54.9844C97.1406 54.1823 96.7396 53.5104 96.2188 52.9688C95.7083 52.4167 95.0885 52 94.3594 51.7188C93.6406 51.4271 92.849 51.2812 91.9844 51.2812C91.4531 51.2812 90.9167 51.3385 90.375 51.4531C89.8438 51.5573 89.3281 51.7083 88.8281 51.9062C88.3385 52.1042 87.875 52.3438 87.4375 52.625C87.0104 52.9062 86.625 53.224 86.2812 53.5781V66H81.6562V47.5625ZM124.703 60.3438C125.953 61.0938 127.328 61.6458 128.828 62C130.328 62.3542 131.865 62.5312 133.438 62.5312C134.5 62.5312 135.385 62.4583 136.094 62.3125C136.802 62.1667 137.37 61.9792 137.797 61.75C138.224 61.5208 138.526 61.2604 138.703 60.9688C138.88 60.6771 138.969 60.3802 138.969 60.0781C138.969 59.6406 138.776 59.2656 138.391 58.9531C138.016 58.6406 137.391 58.4844 136.516 58.4844C136.109 58.4844 135.672 58.5104 135.203 58.5625C134.734 58.6146 134.24 58.6719 133.719 58.7344C133.208 58.7865 132.672 58.8385 132.109 58.8906C131.557 58.9427 130.995 58.9688 130.422 58.9688C129.172 58.9688 128.104 58.8333 127.219 58.5625C126.344 58.2917 125.63 57.9219 125.078 57.4531C124.526 56.9844 124.125 56.4323 123.875 55.7969C123.625 55.151 123.5 54.4583 123.5 53.7188C123.5 52.7812 123.719 51.9167 124.156 51.125C124.594 50.3333 125.219 49.651 126.031 49.0781C126.844 48.4948 127.823 48.0417 128.969 47.7188C130.125 47.3958 131.411 47.2344 132.828 47.2344C133.568 47.2344 134.339 47.2812 135.141 47.375C135.953 47.4583 136.75 47.5729 137.531 47.7188C138.312 47.8646 139.062 48.0365 139.781 48.2344C140.5 48.4219 141.135 48.625 141.688 48.8438L140.234 52.4375C139.057 52 137.88 51.6562 136.703 51.4062C135.536 51.1458 134.333 51.0156 133.094 51.0156C132.229 51.0156 131.495 51.0833 130.891 51.2188C130.297 51.3438 129.812 51.5156 129.438 51.7344C129.062 51.9427 128.786 52.1875 128.609 52.4688C128.443 52.7396 128.359 53.026 128.359 53.3281C128.359 53.5469 128.401 53.7448 128.484 53.9219C128.578 54.099 128.724 54.2552 128.922 54.3906C129.13 54.5156 129.396 54.6146 129.719 54.6875C130.052 54.75 130.458 54.7812 130.938 54.7812C131.375 54.7812 131.839 54.7552 132.328 54.7031C132.818 54.651 133.328 54.599 133.859 54.5469C134.391 54.4844 134.938 54.4271 135.5 54.375C136.073 54.3229 136.656 54.2969 137.25 54.2969C138.354 54.2969 139.318 54.4271 140.141 54.6875C140.974 54.9479 141.661 55.3125 142.203 55.7812C142.745 56.25 143.151 56.8021 143.422 57.4375C143.693 58.0729 143.828 58.7656 143.828 59.5156C143.828 60.4844 143.604 61.3854 143.156 62.2188C142.708 63.0521 142.042 63.776 141.156 64.3906C140.271 64.9948 139.167 65.4688 137.844 65.8125C136.531 66.1562 135.01 66.3281 133.281 66.3281C132.219 66.3281 131.193 66.2604 130.203 66.125C129.214 66 128.271 65.8281 127.375 65.6094C126.479 65.3802 125.635 65.1146 124.844 64.8125C124.062 64.5104 123.349 64.1875 122.703 63.8438L124.703 60.3438Z" fill="white"/>
</svg>
